<svg width="32" height="23" viewBox="0 0 32 23" fill="none" xmlns="http://www.w3.org/2000/svg">
<path d="M11.4167 9.33333V3.08333C11.4167 2.5308 11.1972 2.0009 10.8065 1.61019C10.4158 1.21949 9.88587 1 9.33333 1H3.08333C2.5308 1 2.0009 1.21949 1.61019 1.61019C1.21949 2.0009 1 2.5308 1 3.08333V9.33333C1 9.88587 1.21949 10.4158 1.61019 10.8065C2.0009 11.1972 2.5308 11.4167 3.08333 11.4167H9.33333C9.88587 11.4167 10.4158 11.1972 10.8065 10.8065C11.1972 10.4158 11.4167 9.88587 11.4167 9.33333ZM11.4167 9.33333V13.5C11.4167 15.7101 10.5387 17.8298 8.97589 19.3926C7.41309 20.9554 5.29347 21.8333 3.08333 21.8333H1M30.1667 9.33333V3.08333C30.1667 2.5308 29.9472 2.0009 29.5565 1.61019C29.1658 1.21949 28.6359 1 28.0833 1H21.8333C21.2808 1 20.7509 1.21949 20.3602 1.61019C19.9695 2.0009 19.75 2.5308 19.75 3.08333V9.33333C19.75 9.88587 19.9695 10.4158 20.3602 10.8065C20.7509 11.1972 21.2808 11.4167 21.8333 11.4167H28.0833C28.6359 11.4167 29.1658 11.1972 29.5565 10.8065C29.9472 10.4158 30.1667 9.88587 30.1667 9.33333ZM30.1667 9.33333V13.5C30.1667 15.7101 29.2887 17.8298 27.7259 19.3926C26.1631 20.9554 24.0435 21.8333 21.8333 21.8333H19.75" stroke="black" stroke-width="2" stroke-linecap="round" stroke-linejoin="round"/>
</svg>
